<svg class="border shadow-md" viewBox="0 0 752.4 752.4" style="width: 752.4px; height: 752.4px;" xmlns="http://www.w3.org/2000/svg" preserveAspectRatio="none"><rect class="bg" id="bg" x="0" y="0" width="752.4" height="752.4" fill="#ffffff"/><g transform="rotate(0 376.2 376.2)"><path id="-1" d="M -476.20 -120.48 S -384.00 -267.48&#10;            0.00 -120.48 55.20 -246.48&#10;            476.20 -120.48 704.30 -251.48&#10;            952.40 -120.48 1057.60 -228.48&#10;            1428.60 -120.48 h 110 V 952.4 H -476.20 Z" fill="#44475A"/><path id="0" d="M -476.20 30.00 S -248.10 -45.24&#10;            0.00 30.00 60.20 -111.00&#10;            476.20 30.00 704.30 -45.24&#10;            952.40 30.00 1088.60 -45.24&#10;            1428.60 30.00 h 110 V 952.4 H -476.20 Z" fill="#434657"/><path id="1" d="M -476.20 180.48 S -354.00 105.24&#10;            0.00 180.48 87.20 62.48&#10;            476.20 180.48 704.30 89.48&#10;            952.40 180.48 1180.50 105.24&#10;            1428.60 180.48 h 110 V 952.4 H -476.20 Z" fill="#424554"/><path id="2" d="M -476.20 330.96 S -248.10 255.72&#10;            0.00 330.96 49.20 255.72&#10;            476.20 330.96 551.40 255.72&#10;            952.40 330.96 1122.60 253.96&#10;            1428.60 330.96 h 110 V 952.4 H -476.20 Z" fill="#414451"/><path id="3" d="M -476.20 481.44 S -248.10 343.44&#10;            0.00 481.44 191.20 361.44&#10;            476.20 481.44 647.40 406.20&#10;            952.40 481.44 969.60 335.44&#10;            1428.60 481.44 h 110 V 952.4 H -476.20 Z" fill="#40434e"/><path id="4" d="M -476.20 631.92 S -248.10 556.68&#10;            0.00 631.92 176.20 556.68&#10;            476.20 631.92 704.30 529.92&#10;            952.40 631.92 1105.60 516.92&#10;            1428.60 631.92 h 110 V 952.4 H -476.20 Z" fill="#3f424b"/></g></svg>