<svg id="visual" viewBox="0 0 900 600" width="900" height="600" xmlns="http://www.w3.org/2000/svg" xmlns:xlink="http://www.w3.org/1999/xlink" version="1.1"><path d="M0 25L25 28C50 31 100 37 150 40C200 43 250 43 300 41C350 39 400 35 450 33C500 31 550 31 600 34C650 37 700 43 750 45C800 47 850 45 875 44L900 43L900 0L875 0C850 0 800 0 750 0C700 0 650 0 600 0C550 0 500 0 450 0C400 0 350 0 300 0C250 0 200 0 150 0C100 0 50 0 25 0L0 0Z" fill="#e1e1e6"></path><path d="M0 79L25 86C50 93 100 107 150 112C200 117 250 113 300 108C350 103 400 97 450 97C500 97 550 103 600 109C650 115 700 121 750 115C800 109 850 91 875 82L900 73L900 41L875 42C850 43 800 45 750 43C700 41 650 35 600 32C550 29 500 29 450 31C400 33 350 37 300 39C250 41 200 41 150 38C100 35 50 29 25 26L0 23Z" fill="#cbc9df"></path><path d="M0 157L25 171C50 185 100 213 150 227C200 241 250 241 300 243C350 245 400 249 450 238C500 227 550 201 600 197C650 193 700 211 750 221C800 231 850 233 875 234L900 235L900 71L875 80C850 89 800 107 750 113C700 119 650 113 600 107C550 101 500 95 450 95C400 95 350 101 300 106C250 111 200 115 150 110C100 105 50 91 25 84L0 77Z" fill="#b6b1d6"></path><path d="M0 229L25 246C50 263 100 297 150 313C200 329 250 327 300 329C350 331 400 337 450 329C500 321 550 299 600 292C650 285 700 293 750 294C800 295 850 289 875 286L900 283L900 233L875 232C850 231 800 229 750 219C700 209 650 191 600 195C550 199 500 225 450 236C400 247 350 243 300 241C250 239 200 239 150 225C100 211 50 183 25 169L0 155Z" fill="#a399cd"></path><path d="M0 277L25 289C50 301 100 325 150 341C200 357 250 365 300 369C350 373 400 373 450 363C500 353 550 333 600 328C650 323 700 333 750 331C800 329 850 315 875 308L900 301L900 281L875 284C850 287 800 293 750 292C700 291 650 283 600 290C550 297 500 319 450 327C400 335 350 329 300 327C250 325 200 327 150 311C100 295 50 261 25 244L0 227Z" fill="#988bc7"></path><path d="M0 307L25 320C50 333 100 359 150 373C200 387 250 389 300 391C350 393 400 395 450 384C500 373 550 349 600 347C650 345 700 365 750 364C800 363 850 341 875 330L900 319L900 299L875 306C850 313 800 327 750 329C700 331 650 321 600 326C550 331 500 351 450 361C400 371 350 371 300 367C250 363 200 355 150 339C100 323 50 299 25 287L0 275Z" fill="#988bc7"></path><path d="M0 349L25 365C50 381 100 413 150 431C200 449 250 453 300 454C350 455 400 453 450 444C500 435 550 419 600 418C650 417 700 431 750 424C800 417 850 389 875 375L900 361L900 317L875 328C850 339 800 361 750 362C700 363 650 343 600 345C550 347 500 371 450 382C400 393 350 391 300 389C250 387 200 385 150 371C100 357 50 331 25 318L0 305Z" fill="#a399cd"></path><path d="M0 535L25 533C50 531 100 527 150 525C200 523 250 523 300 524C350 525 400 527 450 529C500 531 550 533 600 537C650 541 700 547 750 543C800 539 850 525 875 518L900 511L900 359L875 373C850 387 800 415 750 422C700 429 650 415 600 416C550 417 500 433 450 442C400 451 350 453 300 452C250 451 200 447 150 429C100 411 50 379 25 363L0 347Z" fill="#b6b1d6"></path><path d="M0 589L25 587C50 585 100 581 150 577C200 573 250 569 300 567C350 565 400 565 450 567C500 569 550 573 600 574C650 575 700 573 750 571C800 569 850 567 875 566L900 565L900 509L875 516C850 523 800 537 750 541C700 545 650 539 600 535C550 531 500 529 450 527C400 525 350 523 300 522C250 521 200 521 150 523C100 525 50 529 25 531L0 533Z" fill="#cbc9df"></path><path d="M0 601L25 601C50 601 100 601 150 601C200 601 250 601 300 601C350 601 400 601 450 601C500 601 550 601 600 601C650 601 700 601 750 601C800 601 850 601 875 601L900 601L900 563L875 564C850 565 800 567 750 569C700 571 650 573 600 572C550 571 500 567 450 565C400 563 350 563 300 565C250 567 200 571 150 575C100 579 50 583 25 585L0 587Z" fill="#e1e1e6"></path></svg>